<svg id="visual" viewBox="0 0 3840 2160" width="3840" height="2160" xmlns="http://www.w3.org/2000/svg" xmlns:xlink="http://www.w3.org/1999/xlink" version="1.1"><g stroke-width="1" stroke-linejoin="bevel"><path d="M1920 1080L1920 720L1536 720Z" fill="#34b785" stroke="#34b785"></path><path d="M1536 720L1536 1080L1920 1080Z" fill="#1aa27a" stroke="#1aa27a"></path><path d="M1920 720L1536 360L1536 720Z" fill="#23a97e" stroke="#23a97e"></path><path d="M1536 1080L1920 1440L1920 1080Z" fill="#34b785" stroke="#34b785"></path><path d="M1536 1080L1536 1440L1920 1440Z" fill="#4ccd8f" stroke="#4ccd8f"></path><path d="M1920 720L1920 360L1536 360Z" fill="#2cb082" stroke="#2cb082"></path><path d="M1920 1440L2304 1080L1920 1080Z" fill="#2cb082" stroke="#2cb082"></path><path d="M1920 1080L2304 1080L1920 720Z" fill="#0f9b77" stroke="#0f9b77"></path><path d="M1920 720L2304 720L1920 360Z" fill="#54d492" stroke="#54d492"></path><path d="M1152 720L1152 1080L1536 720Z" fill="#2cb082" stroke="#2cb082"></path><path d="M1536 720L1152 1080L1536 1080Z" fill="#0f9b77" stroke="#0f9b77"></path><path d="M1536 1080L1152 1080L1536 1440Z" fill="#5cdb95" stroke="#5cdb95"></path><path d="M2304 1080L2304 720L1920 720Z" fill="#5cdb95" stroke="#5cdb95"></path><path d="M1536 360L1152 720L1536 720Z" fill="#54d492" stroke="#54d492"></path><path d="M1920 1440L2304 1440L2304 1080Z" fill="#2cb082" stroke="#2cb082"></path><path d="M1536 360L1152 360L1152 720Z" fill="#2cb082" stroke="#2cb082"></path><path d="M2304 720L2304 360L1920 360Z" fill="#23a97e" stroke="#23a97e"></path><path d="M1152 1080L1152 1440L1536 1440Z" fill="#2cb082" stroke="#2cb082"></path><path d="M1536 1440L1920 1800L1920 1440Z" fill="#54d492" stroke="#54d492"></path><path d="M1920 1440L1920 1800L2304 1440Z" fill="#0f9b77" stroke="#0f9b77"></path><path d="M1536 1800L1920 1800L1536 1440Z" fill="#34b785" stroke="#34b785"></path><path d="M2304 360L1920 0L1920 360Z" fill="#009473" stroke="#009473"></path><path d="M1920 360L1920 0L1536 360Z" fill="#54d492" stroke="#54d492"></path><path d="M1536 360L1536 0L1152 360Z" fill="#009473" stroke="#009473"></path><path d="M1920 0L1536 0L1536 360Z" fill="#44c58c" stroke="#44c58c"></path><path d="M1152 1440L1536 1800L1536 1440Z" fill="#009473" stroke="#009473"></path><path d="M2688 1080L2688 720L2304 1080Z" fill="#54d492" stroke="#54d492"></path><path d="M2304 1080L2688 720L2304 720Z" fill="#3cbe88" stroke="#3cbe88"></path><path d="M2304 720L2688 720L2304 360Z" fill="#4ccd8f" stroke="#4ccd8f"></path><path d="M2304 1440L2688 1080L2304 1080Z" fill="#54d492" stroke="#54d492"></path><path d="M1152 720L768 1080L1152 1080Z" fill="#4ccd8f" stroke="#4ccd8f"></path><path d="M1152 1080L768 1080L1152 1440Z" fill="#009473" stroke="#009473"></path><path d="M768 720L768 1080L1152 720Z" fill="#5cdb95" stroke="#5cdb95"></path><path d="M1152 360L768 720L1152 720Z" fill="#009473" stroke="#009473"></path><path d="M1920 1800L2304 1800L2304 1440Z" fill="#4ccd8f" stroke="#4ccd8f"></path><path d="M2304 1440L2688 1440L2688 1080Z" fill="#009473" stroke="#009473"></path><path d="M2688 360L2304 0L2304 360Z" fill="#3cbe88" stroke="#3cbe88"></path><path d="M2304 360L2304 0L1920 0Z" fill="#54d492" stroke="#54d492"></path><path d="M768 1440L1152 1800L1152 1440Z" fill="#54d492" stroke="#54d492"></path><path d="M1152 1440L1152 1800L1536 1800Z" fill="#3cbe88" stroke="#3cbe88"></path><path d="M1536 0L1152 0L1152 360Z" fill="#23a97e" stroke="#23a97e"></path><path d="M1152 360L768 360L768 720Z" fill="#23a97e" stroke="#23a97e"></path><path d="M2304 1800L2688 1440L2304 1440Z" fill="#3cbe88" stroke="#3cbe88"></path><path d="M2688 720L2688 360L2304 360Z" fill="#5cdb95" stroke="#5cdb95"></path><path d="M1152 0L768 360L1152 360Z" fill="#34b785" stroke="#34b785"></path><path d="M768 1080L768 1440L1152 1440Z" fill="#34b785" stroke="#34b785"></path><path d="M1152 1800L1536 2160L1536 1800Z" fill="#3cbe88" stroke="#3cbe88"></path><path d="M1536 1800L1536 2160L1920 1800Z" fill="#23a97e" stroke="#23a97e"></path><path d="M1920 1800L1920 2160L2304 1800Z" fill="#34b785" stroke="#34b785"></path><path d="M1536 2160L1920 2160L1920 1800Z" fill="#23a97e" stroke="#23a97e"></path><path d="M1152 0L768 0L768 360Z" fill="#1aa27a" stroke="#1aa27a"></path><path d="M1152 1800L1152 2160L1536 2160Z" fill="#3cbe88" stroke="#3cbe88"></path><path d="M768 1440L768 1800L1152 1800Z" fill="#23a97e" stroke="#23a97e"></path><path d="M2688 360L2688 0L2304 0Z" fill="#0f9b77" stroke="#0f9b77"></path><path d="M2304 2160L2688 1800L2304 1800Z" fill="#54d492" stroke="#54d492"></path><path d="M2304 1800L2688 1800L2688 1440Z" fill="#1aa27a" stroke="#1aa27a"></path><path d="M768 1080L384 1080L768 1440Z" fill="#0f9b77" stroke="#0f9b77"></path><path d="M768 1440L384 1440L768 1800Z" fill="#1aa27a" stroke="#1aa27a"></path><path d="M768 720L384 1080L768 1080Z" fill="#23a97e" stroke="#23a97e"></path><path d="M384 720L384 1080L768 720Z" fill="#0f9b77" stroke="#0f9b77"></path><path d="M384 720L768 720L768 360Z" fill="#4ccd8f" stroke="#4ccd8f"></path><path d="M2688 1080L3072 720L2688 720Z" fill="#5cdb95" stroke="#5cdb95"></path><path d="M2688 720L3072 720L2688 360Z" fill="#0f9b77" stroke="#0f9b77"></path><path d="M2688 360L3072 360L2688 0Z" fill="#009473" stroke="#009473"></path><path d="M3072 1080L3072 720L2688 1080Z" fill="#44c58c" stroke="#44c58c"></path><path d="M3072 1080L2688 1080L2688 1440Z" fill="#1aa27a" stroke="#1aa27a"></path><path d="M3072 1440L3072 1080L2688 1440Z" fill="#009473" stroke="#009473"></path><path d="M384 360L384 720L768 360Z" fill="#0f9b77" stroke="#0f9b77"></path><path d="M768 1800L1152 2160L1152 1800Z" fill="#3cbe88" stroke="#3cbe88"></path><path d="M1920 2160L2304 2160L2304 1800Z" fill="#009473" stroke="#009473"></path><path d="M2688 1800L3072 1440L2688 1440Z" fill="#1aa27a" stroke="#1aa27a"></path><path d="M384 1080L384 1440L768 1440Z" fill="#23a97e" stroke="#23a97e"></path><path d="M3072 720L3072 360L2688 360Z" fill="#0f9b77" stroke="#0f9b77"></path><path d="M768 0L384 360L768 360Z" fill="#54d492" stroke="#54d492"></path><path d="M384 1800L768 2160L768 1800Z" fill="#54d492" stroke="#54d492"></path><path d="M768 1800L768 2160L1152 2160Z" fill="#44c58c" stroke="#44c58c"></path><path d="M2304 2160L2688 2160L2688 1800Z" fill="#3cbe88" stroke="#3cbe88"></path><path d="M2688 1800L3072 1800L3072 1440Z" fill="#0f9b77" stroke="#0f9b77"></path><path d="M384 1440L384 1800L768 1800Z" fill="#5cdb95" stroke="#5cdb95"></path><path d="M2688 2160L3072 1800L2688 1800Z" fill="#5cdb95" stroke="#5cdb95"></path><path d="M768 0L384 0L384 360Z" fill="#1aa27a" stroke="#1aa27a"></path><path d="M3072 360L3072 0L2688 0Z" fill="#1aa27a" stroke="#1aa27a"></path><path d="M3072 1080L3456 1080L3072 720Z" fill="#44c58c" stroke="#44c58c"></path><path d="M3072 720L3456 720L3072 360Z" fill="#4ccd8f" stroke="#4ccd8f"></path><path d="M3072 360L3456 360L3072 0Z" fill="#2cb082" stroke="#2cb082"></path><path d="M3072 1440L3456 1080L3072 1080Z" fill="#34b785" stroke="#34b785"></path><path d="M3456 1440L3456 1080L3072 1440Z" fill="#1aa27a" stroke="#1aa27a"></path><path d="M384 1080L0 1080L384 1440Z" fill="#009473" stroke="#009473"></path><path d="M384 1440L0 1440L384 1800Z" fill="#0f9b77" stroke="#0f9b77"></path><path d="M384 720L0 1080L384 1080Z" fill="#44c58c" stroke="#44c58c"></path><path d="M0 720L0 1080L384 720Z" fill="#3cbe88" stroke="#3cbe88"></path><path d="M0 720L384 720L384 360Z" fill="#4ccd8f" stroke="#4ccd8f"></path><path d="M0 360L0 720L384 360Z" fill="#4ccd8f" stroke="#4ccd8f"></path><path d="M3456 1080L3456 720L3072 720Z" fill="#2cb082" stroke="#2cb082"></path><path d="M0 1080L0 1440L384 1440Z" fill="#23a97e" stroke="#23a97e"></path><path d="M3072 1800L3456 1440L3072 1440Z" fill="#3cbe88" stroke="#3cbe88"></path><path d="M3456 720L3456 360L3072 360Z" fill="#0f9b77" stroke="#0f9b77"></path><path d="M384 0L0 360L384 360Z" fill="#3cbe88" stroke="#3cbe88"></path><path d="M384 1800L384 2160L768 2160Z" fill="#34b785" stroke="#34b785"></path><path d="M0 1800L384 2160L384 1800Z" fill="#23a97e" stroke="#23a97e"></path><path d="M2688 2160L3072 2160L3072 1800Z" fill="#23a97e" stroke="#23a97e"></path><path d="M3072 1800L3456 1800L3456 1440Z" fill="#009473" stroke="#009473"></path><path d="M384 0L0 0L0 360Z" fill="#4ccd8f" stroke="#4ccd8f"></path><path d="M3072 2160L3456 1800L3072 1800Z" fill="#5cdb95" stroke="#5cdb95"></path><path d="M0 1440L0 1800L384 1800Z" fill="#009473" stroke="#009473"></path><path d="M3456 360L3456 0L3072 0Z" fill="#4ccd8f" stroke="#4ccd8f"></path><path d="M3456 1080L3840 1080L3456 720Z" fill="#23a97e" stroke="#23a97e"></path><path d="M3456 720L3840 720L3456 360Z" fill="#3cbe88" stroke="#3cbe88"></path><path d="M3456 360L3840 360L3456 0Z" fill="#44c58c" stroke="#44c58c"></path><path d="M3456 1440L3840 1080L3456 1080Z" fill="#4ccd8f" stroke="#4ccd8f"></path><path d="M3840 1440L3840 1080L3456 1440Z" fill="#5cdb95" stroke="#5cdb95"></path><path d="M3840 1080L3840 720L3456 720Z" fill="#44c58c" stroke="#44c58c"></path><path d="M0 1800L0 2160L384 2160Z" fill="#0f9b77" stroke="#0f9b77"></path><path d="M3072 2160L3456 2160L3456 1800Z" fill="#1aa27a" stroke="#1aa27a"></path><path d="M3456 1800L3840 1440L3456 1440Z" fill="#23a97e" stroke="#23a97e"></path><path d="M3840 1800L3840 1440L3456 1800Z" fill="#54d492" stroke="#54d492"></path><path d="M3840 720L3840 360L3456 360Z" fill="#54d492" stroke="#54d492"></path><path d="M3456 2160L3840 1800L3456 1800Z" fill="#1aa27a" stroke="#1aa27a"></path><path d="M3840 360L3840 0L3456 0Z" fill="#0f9b77" stroke="#0f9b77"></path><path d="M3456 2160L3840 2160L3840 1800Z" fill="#23a97e" stroke="#23a97e"></path></g></svg>